<?xml version="1.0" standalone="no"?>
<svg xmlns:xlink="http://www.w3.org/1999/xlink" id="wave" style="transform:rotate(0deg); transition: 0.3s" viewBox="0 0 1440 390" version="1.1" xmlns="http://www.w3.org/2000/svg"><defs><linearGradient id="sw-gradient-0" x1="0" x2="0" y1="1" y2="0"><stop stop-color="rgba(213.951, 115.372, 230.311, 1)" offset="0%"/><stop stop-color="rgba(234.865, 79.195, 183.189, 1)" offset="100%"/></linearGradient></defs><path style="transform:translate(0, 0px); opacity:1" fill="url(#sw-gradient-0)" d="M0,0L14.1,45.5C28.2,91,56,182,85,208C112.9,234,141,195,169,208C197.6,221,226,286,254,260C282.4,234,311,117,339,117C367.1,117,395,234,424,266.5C451.8,299,480,247,508,214.5C536.5,182,565,169,593,175.5C621.2,182,649,208,678,188.5C705.9,169,734,104,762,117C790.6,130,819,221,847,214.5C875.3,208,904,104,932,97.5C960,91,988,182,1016,201.5C1044.7,221,1073,169,1101,123.5C1129.4,78,1158,39,1186,58.5C1214.1,78,1242,156,1271,214.5C1298.8,273,1327,312,1355,286C1383.5,260,1412,169,1440,169C1468.2,169,1496,260,1525,247C1552.9,234,1581,117,1609,91C1637.6,65,1666,130,1694,130C1722.4,130,1751,65,1779,71.5C1807.1,78,1835,156,1864,195C1891.8,234,1920,234,1948,247C1976.5,260,2005,286,2019,299L2032.9,312L2032.9,390L2018.8,390C2004.7,390,1976,390,1948,390C1920,390,1892,390,1864,390C1835.3,390,1807,390,1779,390C1750.6,390,1722,390,1694,390C1665.9,390,1638,390,1609,390C1581.2,390,1553,390,1525,390C1496.5,390,1468,390,1440,390C1411.8,390,1384,390,1355,390C1327.1,390,1299,390,1271,390C1242.4,390,1214,390,1186,390C1157.6,390,1129,390,1101,390C1072.9,390,1045,390,1016,390C988.2,390,960,390,932,390C903.5,390,875,390,847,390C818.8,390,791,390,762,390C734.1,390,706,390,678,390C649.4,390,621,390,593,390C564.7,390,536,390,508,390C480,390,452,390,424,390C395.3,390,367,390,339,390C310.6,390,282,390,254,390C225.9,390,198,390,169,390C141.2,390,113,390,85,390C56.5,390,28,390,14,390L0,390Z"/></svg>